<svg width="249" height="245" viewBox="0 0 249 245" fill="none" xmlns="http://www.w3.org/2000/svg">
<path d="M244 120C244 53.7258 190.274 0 124 0C57.7258 0 4 53.7258 4 120H244Z" fill="#ED1F0C"/>
<rect x="5" y="120" width="238" height="12" fill="#ED1F0C"/>
<mask id="mask0_3_89" style="mask-type:alpha" maskUnits="userSpaceOnUse" x="82" y="133" width="85" height="112">
<rect x="82" y="133" width="85" height="112" fill="#D9D9D9"/>
</mask>
<g mask="url(#mask0_3_89)">
<mask id="mask1_3_89" style="mask-type:alpha" maskUnits="userSpaceOnUse" x="85" y="120" width="78" height="118">
<rect x="85" y="120" width="78" height="118" fill="#D9D9D9"/>
</mask>
<g mask="url(#mask1_3_89)">
<circle cx="124" cy="120" r="120" fill="#ED1F0C"/>
</g>
</g>
<mask id="mask2_3_89" style="mask-type:alpha" maskUnits="userSpaceOnUse" x="0" y="133" width="85" height="101">
<rect y="133" width="85" height="101" fill="#D9D9D9"/>
</mask>
<g mask="url(#mask2_3_89)">
<mask id="mask3_3_89" style="mask-type:alpha" maskUnits="userSpaceOnUse" x="5" y="120" width="78" height="110">
<rect x="5" y="120" width="78" height="110" fill="#D9D9D9"/>
</mask>
<g mask="url(#mask3_3_89)">
<circle cx="124" cy="120" r="120" fill="#FA5E3F"/>
</g>
</g>
<mask id="mask4_3_89" style="mask-type:alpha" maskUnits="userSpaceOnUse" x="164" y="133" width="85" height="101">
<rect x="164" y="133" width="85" height="101" fill="#D9D9D9"/>
</mask>
<g mask="url(#mask4_3_89)">
<mask id="mask5_3_89" style="mask-type:alpha" maskUnits="userSpaceOnUse" x="164" y="120" width="78" height="110">
<rect x="164" y="120" width="78" height="110" fill="#D9D9D9"/>
</mask>
<g mask="url(#mask5_3_89)">
<circle cx="124" cy="120" r="120" fill="#89200F"/>
</g>
</g>
<circle cx="124" cy="120" r="118" stroke="white" stroke-width="4"/>
<line x1="5" y1="134" x2="243" y2="134" stroke="white" stroke-width="4"/>
<line x1="84" y1="132" x2="84" y2="232" stroke="white" stroke-width="4"/>
<line x1="164" y1="132" x2="164" y2="232" stroke="white" stroke-width="4"/>
</svg>
