<svg width="275" height="108" viewBox="0 0 275 108" fill="none" xmlns="http://www.w3.org/2000/svg">
<mask id="path-1-inside-1_6_177" fill="white">
<rect y="53.8283" width="76.1247" height="76.1247" rx="5" transform="rotate(-45 0 53.8283)"/>
</mask>
<rect y="53.8283" width="76.1247" height="76.1247" rx="5" transform="rotate(-45 0 53.8283)" stroke="#2F2F2F" stroke-width="30" mask="url(#path-1-inside-1_6_177)"/>
<rect y="53.8283" width="76.1247" height="76.1247" rx="5" transform="rotate(-45 0 53.8283)" stroke="#2F2F2F" stroke-width="30" mask="url(#path-1-inside-1_6_177)"/>
<rect y="53.8283" width="76.1247" height="76.1247" rx="5" transform="rotate(-45 0 53.8283)" stroke="#2F2F2F" stroke-width="30" mask="url(#path-1-inside-1_6_177)"/>
<mask id="path-2-inside-2_6_177" fill="white">
<rect x="7.21143" y="26.9142" width="76.1247" height="76.1247" rx="5" transform="rotate(-15 7.21143 26.9142)"/>
</mask>
<rect x="7.21143" y="26.9142" width="76.1247" height="76.1247" rx="5" transform="rotate(-15 7.21143 26.9142)" stroke="#7E7E7E" stroke-width="30" mask="url(#path-2-inside-2_6_177)"/>
<mask id="path-3-inside-3_6_177" fill="white">
<rect x="7.2113" y="80.7424" width="76.1247" height="76.1247" rx="5" transform="rotate(-75 7.2113 80.7424)"/>
</mask>
<rect x="7.2113" y="80.7424" width="76.1247" height="76.1247" rx="5" transform="rotate(-75 7.2113 80.7424)" fill="#D9D9D9" stroke="#D5D5D5" stroke-width="30" mask="url(#path-3-inside-3_6_177)"/>
<path d="M138.224 56.576C135.952 56.576 133.84 56.16 131.888 55.328C129.968 54.496 128.304 53.344 126.896 51.872C125.52 50.368 124.512 48.624 123.872 46.64L129.296 44.288C130.16 46.336 131.408 47.952 133.04 49.136C134.672 50.288 136.512 50.864 138.56 50.864C139.712 50.864 140.704 50.688 141.536 50.336C142.4 49.952 143.056 49.44 143.504 48.8C143.984 48.16 144.224 47.392 144.224 46.496C144.224 45.44 143.904 44.576 143.264 43.904C142.656 43.2 141.728 42.656 140.48 42.272L133.616 40.064C130.832 39.2 128.736 37.904 127.328 36.176C125.92 34.448 125.216 32.416 125.216 30.08C125.216 28.032 125.712 26.224 126.704 24.656C127.728 23.088 129.136 21.872 130.928 21.008C132.752 20.112 134.832 19.664 137.168 19.664C139.312 19.664 141.28 20.048 143.072 20.816C144.864 21.552 146.4 22.592 147.68 23.936C148.992 25.248 149.968 26.8 150.608 28.592L145.232 30.992C144.528 29.2 143.472 27.824 142.064 26.864C140.656 25.872 139.024 25.376 137.168 25.376C136.08 25.376 135.12 25.568 134.288 25.952C133.456 26.304 132.8 26.816 132.32 27.488C131.872 28.128 131.648 28.896 131.648 29.792C131.648 30.784 131.968 31.664 132.608 32.432C133.248 33.168 134.224 33.744 135.536 34.16L142.112 36.224C144.96 37.152 147.088 38.432 148.496 40.064C149.936 41.696 150.656 43.712 150.656 46.112C150.656 48.16 150.128 49.968 149.072 51.536C148.016 53.104 146.56 54.336 144.704 55.232C142.848 56.128 140.688 56.576 138.224 56.576ZM168.582 56.576C165.99 56.576 163.654 55.984 161.574 54.8C159.526 53.584 157.91 51.952 156.726 49.904C155.542 47.824 154.95 45.488 154.95 42.896C154.95 40.304 155.542 37.984 156.726 35.936C157.91 33.888 159.526 32.272 161.574 31.088C163.654 29.904 165.99 29.312 168.582 29.312C170.438 29.312 172.166 29.648 173.766 30.32C175.366 30.96 176.742 31.856 177.894 33.008C179.078 34.128 179.926 35.472 180.438 37.04L174.918 39.44C174.438 38.128 173.622 37.072 172.47 36.272C171.35 35.472 170.054 35.072 168.582 35.072C167.206 35.072 165.974 35.408 164.886 36.08C163.83 36.752 162.998 37.68 162.39 38.864C161.782 40.048 161.478 41.408 161.478 42.944C161.478 44.48 161.782 45.84 162.39 47.024C162.998 48.208 163.83 49.136 164.886 49.808C165.974 50.48 167.206 50.816 168.582 50.816C170.086 50.816 171.398 50.416 172.518 49.616C173.638 48.816 174.438 47.744 174.918 46.4L180.438 48.896C179.926 50.368 179.094 51.696 177.942 52.88C176.79 54.032 175.414 54.944 173.814 55.616C172.214 56.256 170.47 56.576 168.582 56.576ZM193.036 56.576C191.212 56.576 189.628 56.272 188.284 55.664C186.94 55.056 185.9 54.192 185.164 53.072C184.428 51.92 184.06 50.592 184.06 49.088C184.06 47.648 184.38 46.368 185.02 45.248C185.66 44.096 186.652 43.136 187.996 42.368C189.34 41.6 191.036 41.056 193.084 40.736L201.628 39.344V44.144L194.284 45.392C193.036 45.616 192.108 46.016 191.5 46.592C190.892 47.168 190.588 47.92 190.588 48.848C190.588 49.744 190.924 50.464 191.596 51.008C192.3 51.52 193.164 51.776 194.188 51.776C195.5 51.776 196.652 51.504 197.644 50.96C198.668 50.384 199.452 49.6 199.996 48.608C200.572 47.616 200.86 46.528 200.86 45.344V38.624C200.86 37.504 200.412 36.576 199.516 35.84C198.652 35.072 197.5 34.688 196.06 34.688C194.716 34.688 193.516 35.056 192.46 35.792C191.436 36.496 190.684 37.44 190.204 38.624L185.068 36.128C185.58 34.752 186.38 33.568 187.468 32.576C188.588 31.552 189.9 30.752 191.404 30.176C192.908 29.6 194.54 29.312 196.299 29.312C198.444 29.312 200.332 29.712 201.964 30.512C203.596 31.28 204.86 32.368 205.756 33.776C206.684 35.152 207.148 36.768 207.148 38.624V56H201.196V51.536L202.54 51.44C201.868 52.56 201.068 53.504 200.14 54.272C199.212 55.008 198.156 55.584 196.972 56C195.788 56.384 194.476 56.576 193.036 56.576ZM212.959 56V19.664H219.247V56H212.959ZM237.821 56.576C235.261 56.576 232.925 55.984 230.813 54.8C228.733 53.616 227.069 52 225.821 49.952C224.605 47.904 223.997 45.568 223.997 42.944C223.997 40.32 224.605 37.984 225.821 35.936C227.069 33.888 228.733 32.272 230.813 31.088C232.893 29.904 235.229 29.312 237.821 29.312C240.381 29.312 242.701 29.904 244.781 31.088C246.861 32.272 248.509 33.888 249.725 35.936C250.973 37.952 251.597 40.288 251.597 42.944C251.597 45.568 250.973 47.904 249.725 49.952C248.477 52 246.813 53.616 244.733 54.8C242.653 55.984 240.349 56.576 237.821 56.576ZM237.821 50.816C239.229 50.816 240.461 50.48 241.517 49.808C242.605 49.136 243.453 48.208 244.061 47.024C244.701 45.808 245.021 44.448 245.021 42.944C245.021 41.408 244.701 40.064 244.061 38.912C243.453 37.728 242.605 36.8 241.517 36.128C240.461 35.424 239.229 35.072 237.821 35.072C236.381 35.072 235.117 35.424 234.029 36.128C232.941 36.8 232.077 37.728 231.437 38.912C230.829 40.064 230.525 41.408 230.525 42.944C230.525 44.448 230.829 45.808 231.437 47.024C232.077 48.208 232.941 49.136 234.029 49.808C235.117 50.48 236.381 50.816 237.821 50.816Z" fill="#7E7E7E"/>
<path d="M138.224 56.576C135.952 56.576 133.84 56.16 131.888 55.328C129.968 54.496 128.304 53.344 126.896 51.872C125.52 50.368 124.512 48.624 123.872 46.64L129.296 44.288C130.16 46.336 131.408 47.952 133.04 49.136C134.672 50.288 136.512 50.864 138.56 50.864C139.712 50.864 140.704 50.688 141.536 50.336C142.4 49.952 143.056 49.44 143.504 48.8C143.984 48.16 144.224 47.392 144.224 46.496C144.224 45.44 143.904 44.576 143.264 43.904C142.656 43.2 141.728 42.656 140.48 42.272L133.616 40.064C130.832 39.2 128.736 37.904 127.328 36.176C125.92 34.448 125.216 32.416 125.216 30.08C125.216 28.032 125.712 26.224 126.704 24.656C127.728 23.088 129.136 21.872 130.928 21.008C132.752 20.112 134.832 19.664 137.168 19.664C139.312 19.664 141.28 20.048 143.072 20.816C144.864 21.552 146.4 22.592 147.68 23.936C148.992 25.248 149.968 26.8 150.608 28.592L145.232 30.992C144.528 29.2 143.472 27.824 142.064 26.864C140.656 25.872 139.024 25.376 137.168 25.376C136.08 25.376 135.12 25.568 134.288 25.952C133.456 26.304 132.8 26.816 132.32 27.488C131.872 28.128 131.648 28.896 131.648 29.792C131.648 30.784 131.968 31.664 132.608 32.432C133.248 33.168 134.224 33.744 135.536 34.16L142.112 36.224C144.96 37.152 147.088 38.432 148.496 40.064C149.936 41.696 150.656 43.712 150.656 46.112C150.656 48.16 150.128 49.968 149.072 51.536C148.016 53.104 146.56 54.336 144.704 55.232C142.848 56.128 140.688 56.576 138.224 56.576ZM168.582 56.576C165.99 56.576 163.654 55.984 161.574 54.8C159.526 53.584 157.91 51.952 156.726 49.904C155.542 47.824 154.95 45.488 154.95 42.896C154.95 40.304 155.542 37.984 156.726 35.936C157.91 33.888 159.526 32.272 161.574 31.088C163.654 29.904 165.99 29.312 168.582 29.312C170.438 29.312 172.166 29.648 173.766 30.32C175.366 30.96 176.742 31.856 177.894 33.008C179.078 34.128 179.926 35.472 180.438 37.04L174.918 39.44C174.438 38.128 173.622 37.072 172.47 36.272C171.35 35.472 170.054 35.072 168.582 35.072C167.206 35.072 165.974 35.408 164.886 36.08C163.83 36.752 162.998 37.68 162.39 38.864C161.782 40.048 161.478 41.408 161.478 42.944C161.478 44.48 161.782 45.84 162.39 47.024C162.998 48.208 163.83 49.136 164.886 49.808C165.974 50.48 167.206 50.816 168.582 50.816C170.086 50.816 171.398 50.416 172.518 49.616C173.638 48.816 174.438 47.744 174.918 46.4L180.438 48.896C179.926 50.368 179.094 51.696 177.942 52.88C176.79 54.032 175.414 54.944 173.814 55.616C172.214 56.256 170.47 56.576 168.582 56.576ZM193.036 56.576C191.212 56.576 189.628 56.272 188.284 55.664C186.94 55.056 185.9 54.192 185.164 53.072C184.428 51.92 184.06 50.592 184.06 49.088C184.06 47.648 184.38 46.368 185.02 45.248C185.66 44.096 186.652 43.136 187.996 42.368C189.34 41.6 191.036 41.056 193.084 40.736L201.628 39.344V44.144L194.284 45.392C193.036 45.616 192.108 46.016 191.5 46.592C190.892 47.168 190.588 47.92 190.588 48.848C190.588 49.744 190.924 50.464 191.596 51.008C192.3 51.52 193.164 51.776 194.188 51.776C195.5 51.776 196.652 51.504 197.644 50.96C198.668 50.384 199.452 49.6 199.996 48.608C200.572 47.616 200.86 46.528 200.86 45.344V38.624C200.86 37.504 200.412 36.576 199.516 35.84C198.652 35.072 197.5 34.688 196.06 34.688C194.716 34.688 193.516 35.056 192.46 35.792C191.436 36.496 190.684 37.44 190.204 38.624L185.068 36.128C185.58 34.752 186.38 33.568 187.468 32.576C188.588 31.552 189.9 30.752 191.404 30.176C192.908 29.6 194.54 29.312 196.299 29.312C198.444 29.312 200.332 29.712 201.964 30.512C203.596 31.28 204.86 32.368 205.756 33.776C206.684 35.152 207.148 36.768 207.148 38.624V56H201.196V51.536L202.54 51.44C201.868 52.56 201.068 53.504 200.14 54.272C199.212 55.008 198.156 55.584 196.972 56C195.788 56.384 194.476 56.576 193.036 56.576ZM212.959 56V19.664H219.247V56H212.959ZM237.821 56.576C235.261 56.576 232.925 55.984 230.813 54.8C228.733 53.616 227.069 52 225.821 49.952C224.605 47.904 223.997 45.568 223.997 42.944C223.997 40.32 224.605 37.984 225.821 35.936C227.069 33.888 228.733 32.272 230.813 31.088C232.893 29.904 235.229 29.312 237.821 29.312C240.381 29.312 242.701 29.904 244.781 31.088C246.861 32.272 248.509 33.888 249.725 35.936C250.973 37.952 251.597 40.288 251.597 42.944C251.597 45.568 250.973 47.904 249.725 49.952C248.477 52 246.813 53.616 244.733 54.8C242.653 55.984 240.349 56.576 237.821 56.576ZM237.821 50.816C239.229 50.816 240.461 50.48 241.517 49.808C242.605 49.136 243.453 48.208 244.061 47.024C244.701 45.808 245.021 44.448 245.021 42.944C245.021 41.408 244.701 40.064 244.061 38.912C243.453 37.728 242.605 36.8 241.517 36.128C240.461 35.424 239.229 35.072 237.821 35.072C236.381 35.072 235.117 35.424 234.029 36.128C232.941 36.8 232.077 37.728 231.437 38.912C230.829 40.064 230.525 41.408 230.525 42.944C230.525 44.448 230.829 45.808 231.437 47.024C232.077 48.208 232.941 49.136 234.029 49.808C235.117 50.48 236.381 50.816 237.821 50.816Z" fill="#D9D9D9"/>
<path d="M127.992 81.168C127.255 81.168 126.578 81.0373 125.962 80.776C125.346 80.5053 124.809 80.132 124.352 79.656C123.904 79.1707 123.554 78.6013 123.302 77.948C123.05 77.2947 122.924 76.576 122.924 75.792C122.924 75.008 123.05 74.2893 123.302 73.636C123.554 72.9827 123.904 72.4133 124.352 71.928C124.809 71.4427 125.346 71.0693 125.962 70.808C126.578 70.5373 127.255 70.402 127.992 70.402C128.701 70.402 129.336 70.528 129.896 70.78C130.465 71.032 130.941 71.3587 131.324 71.76C131.716 72.152 131.996 72.5673 132.164 73.006L131.114 73.468C130.853 72.8613 130.451 72.376 129.91 72.012C129.378 71.6387 128.739 71.452 127.992 71.452C127.227 71.452 126.545 71.634 125.948 71.998C125.351 72.362 124.884 72.8707 124.548 73.524C124.212 74.168 124.044 74.924 124.044 75.792C124.044 76.6507 124.212 77.4067 124.548 78.06C124.884 78.7133 125.351 79.222 125.948 79.586C126.545 79.9407 127.227 80.118 127.992 80.118C128.739 80.118 129.378 79.936 129.91 79.572C130.451 79.208 130.853 78.7227 131.114 78.116L132.164 78.578C131.996 79.0073 131.716 79.4227 131.324 79.824C130.941 80.216 130.465 80.538 129.896 80.79C129.336 81.042 128.701 81.168 127.992 81.168ZM137.393 81.168C136.683 81.168 136.039 81 135.461 80.664C134.882 80.3187 134.42 79.852 134.075 79.264C133.739 78.6667 133.571 77.99 133.571 77.234C133.571 76.4873 133.739 75.82 134.075 75.232C134.411 74.644 134.863 74.182 135.433 73.846C136.011 73.5007 136.665 73.328 137.393 73.328C138.121 73.328 138.769 73.496 139.339 73.832C139.917 74.168 140.37 74.63 140.697 75.218C141.033 75.806 141.201 76.478 141.201 77.234C141.201 77.9993 141.028 78.6807 140.683 79.278C140.337 79.866 139.875 80.328 139.297 80.664C138.727 81 138.093 81.168 137.393 81.168ZM137.393 80.118C137.897 80.118 138.349 79.992 138.751 79.74C139.161 79.488 139.483 79.1427 139.717 78.704C139.959 78.2653 140.081 77.7753 140.081 77.234C140.081 76.6927 139.959 76.2073 139.717 75.778C139.483 75.3487 139.161 75.008 138.751 74.756C138.349 74.504 137.897 74.378 137.393 74.378C136.889 74.378 136.431 74.504 136.021 74.756C135.619 75.008 135.297 75.3487 135.055 75.778C134.812 76.2073 134.691 76.6927 134.691 77.234C134.691 77.7753 134.812 78.2653 135.055 78.704C135.297 79.1427 135.619 79.488 136.021 79.74C136.431 79.992 136.889 80.118 137.393 80.118ZM143.053 81V70.402H144.103V81H143.053ZM149.766 81.168C149.056 81.168 148.412 81 147.834 80.664C147.255 80.3187 146.793 79.852 146.448 79.264C146.112 78.6667 145.944 77.99 145.944 77.234C145.944 76.4873 146.112 75.82 146.448 75.232C146.784 74.644 147.236 74.182 147.806 73.846C148.384 73.5007 149.038 73.328 149.766 73.328C150.494 73.328 151.142 73.496 151.712 73.832C152.29 74.168 152.743 74.63 153.07 75.218C153.406 75.806 153.574 76.478 153.574 77.234C153.574 77.9993 153.401 78.6807 153.056 79.278C152.71 79.866 152.248 80.328 151.67 80.664C151.1 81 150.466 81.168 149.766 81.168ZM149.766 80.118C150.27 80.118 150.722 79.992 151.124 79.74C151.534 79.488 151.856 79.1427 152.09 78.704C152.332 78.2653 152.454 77.7753 152.454 77.234C152.454 76.6927 152.332 76.2073 152.09 75.778C151.856 75.3487 151.534 75.008 151.124 74.756C150.722 74.504 150.27 74.378 149.766 74.378C149.262 74.378 148.804 74.504 148.394 74.756C147.992 75.008 147.67 75.3487 147.428 75.778C147.185 76.2073 147.064 76.6927 147.064 77.234C147.064 77.7753 147.185 78.2653 147.428 78.704C147.67 79.1427 147.992 79.488 148.394 79.74C148.804 79.992 149.262 80.118 149.766 80.118ZM155.426 81V73.496H156.476V74.728L156.336 74.546C156.513 74.1913 156.779 73.9113 157.134 73.706C157.498 73.5007 157.936 73.398 158.45 73.398H158.926V74.448H158.268C157.726 74.448 157.292 74.616 156.966 74.952C156.639 75.288 156.476 75.764 156.476 76.38V81H155.426ZM162.535 83.8V73.496H163.585V75.176L163.417 74.882C163.716 74.406 164.112 74.028 164.607 73.748C165.111 73.468 165.685 73.328 166.329 73.328C167.038 73.328 167.668 73.5007 168.219 73.846C168.779 74.182 169.218 74.644 169.535 75.232C169.862 75.82 170.025 76.492 170.025 77.248C170.025 77.9947 169.862 78.6667 169.535 79.264C169.218 79.852 168.779 80.3187 168.219 80.664C167.668 81 167.038 81.168 166.329 81.168C165.685 81.168 165.102 81.0233 164.579 80.734C164.066 80.4353 163.678 80.0153 163.417 79.474L163.585 79.32V83.8H162.535ZM166.273 80.118C166.777 80.118 167.225 79.992 167.617 79.74C168.018 79.488 168.331 79.1473 168.555 78.718C168.788 78.2793 168.905 77.7893 168.905 77.248C168.905 76.6973 168.788 76.2073 168.555 75.778C168.331 75.3487 168.018 75.008 167.617 74.756C167.225 74.504 166.777 74.378 166.273 74.378C165.769 74.378 165.312 74.504 164.901 74.756C164.5 75.008 164.178 75.3533 163.935 75.792C163.702 76.2213 163.585 76.7067 163.585 77.248C163.585 77.7893 163.702 78.2793 163.935 78.718C164.178 79.1473 164.5 79.488 164.901 79.74C165.312 79.992 165.769 80.118 166.273 80.118ZM174.043 81.168C173.567 81.168 173.142 81.0793 172.769 80.902C172.396 80.7153 172.102 80.4633 171.887 80.146C171.672 79.8287 171.565 79.4647 171.565 79.054C171.565 78.662 171.649 78.3073 171.817 77.99C171.985 77.6633 172.246 77.388 172.601 77.164C172.956 76.94 173.408 76.7813 173.959 76.688L176.899 76.198V77.15L174.211 77.598C173.67 77.6913 173.278 77.864 173.035 78.116C172.802 78.368 172.685 78.6667 172.685 79.012C172.685 79.348 172.816 79.6327 173.077 79.866C173.348 80.0993 173.693 80.216 174.113 80.216C174.626 80.216 175.074 80.1087 175.457 79.894C175.84 79.67 176.138 79.3713 176.353 78.998C176.568 78.6247 176.675 78.2093 176.675 77.752V75.848C176.675 75.4 176.512 75.036 176.185 74.756C175.858 74.476 175.434 74.336 174.911 74.336C174.454 74.336 174.052 74.4527 173.707 74.686C173.362 74.91 173.105 75.204 172.937 75.568L171.985 75.05C172.125 74.7327 172.344 74.4433 172.643 74.182C172.951 73.9207 173.301 73.7153 173.693 73.566C174.085 73.4073 174.491 73.328 174.911 73.328C175.462 73.328 175.947 73.4353 176.367 73.65C176.796 73.8647 177.128 74.1633 177.361 74.546C177.604 74.9193 177.725 75.3533 177.725 75.848V81H176.675V79.502L176.829 79.656C176.698 79.936 176.493 80.1927 176.213 80.426C175.942 80.65 175.62 80.832 175.247 80.972C174.883 81.1027 174.482 81.168 174.043 81.168ZM179.885 81V70.402H180.935V81H179.885ZM186.5 81.168C185.8 81.168 185.165 81 184.596 80.664C184.036 80.3187 183.593 79.8473 183.266 79.25C182.939 78.6527 182.776 77.976 182.776 77.22C182.776 76.464 182.935 75.7967 183.252 75.218C183.569 74.63 183.999 74.168 184.54 73.832C185.091 73.496 185.707 73.328 186.388 73.328C186.929 73.328 187.41 73.4307 187.83 73.636C188.259 73.832 188.623 74.1027 188.922 74.448C189.221 74.784 189.449 75.1667 189.608 75.596C189.767 76.016 189.846 76.45 189.846 76.898C189.846 76.9913 189.841 77.0987 189.832 77.22C189.823 77.332 189.809 77.4487 189.79 77.57H183.448V76.59H189.188L188.684 77.01C188.768 76.4967 188.707 76.0393 188.502 75.638C188.306 75.2273 188.021 74.9053 187.648 74.672C187.275 74.4293 186.855 74.308 186.388 74.308C185.921 74.308 185.487 74.4293 185.086 74.672C184.694 74.9147 184.386 75.2553 184.162 75.694C183.938 76.1233 183.849 76.6367 183.896 77.234C183.849 77.8313 183.943 78.354 184.176 78.802C184.419 79.2407 184.745 79.5813 185.156 79.824C185.576 80.0667 186.024 80.188 186.5 80.188C187.051 80.188 187.513 80.0573 187.886 79.796C188.259 79.5347 188.563 79.208 188.796 78.816L189.692 79.292C189.543 79.628 189.314 79.9407 189.006 80.23C188.698 80.51 188.329 80.7387 187.9 80.916C187.48 81.084 187.013 81.168 186.5 81.168ZM194.567 81.084C193.895 81.084 193.377 80.888 193.013 80.496C192.649 80.104 192.467 79.544 192.467 78.816V74.546H191.081V73.496H191.431C191.748 73.496 192 73.3933 192.187 73.188C192.374 72.9733 192.467 72.7073 192.467 72.39V71.76H193.517V73.496H195.169V74.546H193.517V78.816C193.517 79.068 193.554 79.292 193.629 79.488C193.704 79.6747 193.83 79.824 194.007 79.936C194.194 80.048 194.441 80.104 194.749 80.104C194.824 80.104 194.912 80.0993 195.015 80.09C195.118 80.0807 195.206 80.0713 195.281 80.062V81C195.169 81.028 195.043 81.0467 194.903 81.056C194.763 81.0747 194.651 81.084 194.567 81.084ZM199.995 81.084C199.323 81.084 198.805 80.888 198.441 80.496C198.077 80.104 197.895 79.544 197.895 78.816V74.546H196.509V73.496H196.859C197.176 73.496 197.428 73.3933 197.615 73.188C197.802 72.9733 197.895 72.7073 197.895 72.39V71.76H198.945V73.496H200.597V74.546H198.945V78.816C198.945 79.068 198.982 79.292 199.057 79.488C199.132 79.6747 199.258 79.824 199.435 79.936C199.622 80.048 199.869 80.104 200.177 80.104C200.252 80.104 200.34 80.0993 200.443 80.09C200.546 80.0807 200.634 80.0713 200.709 80.062V81C200.597 81.028 200.471 81.0467 200.331 81.056C200.191 81.0747 200.079 81.084 199.995 81.084ZM205.695 81.168C204.995 81.168 204.361 81 203.791 80.664C203.231 80.3187 202.788 79.8473 202.461 79.25C202.135 78.6527 201.971 77.976 201.971 77.22C201.971 76.464 202.13 75.7967 202.447 75.218C202.765 74.63 203.194 74.168 203.735 73.832C204.286 73.496 204.902 73.328 205.583 73.328C206.125 73.328 206.605 73.4307 207.025 73.636C207.455 73.832 207.819 74.1027 208.117 74.448C208.416 74.784 208.645 75.1667 208.803 75.596C208.962 76.016 209.041 76.45 209.041 76.898C209.041 76.9913 209.037 77.0987 209.027 77.22C209.018 77.332 209.004 77.4487 208.985 77.57H202.643V76.59H208.383L207.879 77.01C207.963 76.4967 207.903 76.0393 207.697 75.638C207.501 75.2273 207.217 74.9053 206.843 74.672C206.47 74.4293 206.05 74.308 205.583 74.308C205.117 74.308 204.683 74.4293 204.281 74.672C203.889 74.9147 203.581 75.2553 203.357 75.694C203.133 76.1233 203.045 76.6367 203.091 77.234C203.045 77.8313 203.138 78.354 203.371 78.802C203.614 79.2407 203.941 79.5813 204.351 79.824C204.771 80.0667 205.219 80.188 205.695 80.188C206.246 80.188 206.708 80.0573 207.081 79.796C207.455 79.5347 207.758 79.208 207.991 78.816L208.887 79.292C208.738 79.628 208.509 79.9407 208.201 80.23C207.893 80.51 207.525 80.7387 207.095 80.916C206.675 81.084 206.209 81.168 205.695 81.168ZM213.496 81.168C212.778 81.168 212.148 80.986 211.606 80.622C211.065 80.258 210.673 79.7633 210.43 79.138L211.312 78.718C211.527 79.1753 211.826 79.5393 212.208 79.81C212.6 80.0807 213.03 80.216 213.496 80.216C213.944 80.216 214.322 80.1087 214.63 79.894C214.938 79.67 215.092 79.3807 215.092 79.026C215.092 78.7647 215.018 78.5593 214.868 78.41C214.719 78.2513 214.546 78.13 214.35 78.046C214.154 77.962 213.982 77.9013 213.832 77.864L212.754 77.556C212.064 77.36 211.564 77.0847 211.256 76.73C210.948 76.3753 210.794 75.9647 210.794 75.498C210.794 75.0593 210.906 74.6767 211.13 74.35C211.354 74.0233 211.658 73.7713 212.04 73.594C212.423 73.4167 212.848 73.328 213.314 73.328C213.949 73.328 214.523 73.496 215.036 73.832C215.559 74.1587 215.928 74.616 216.142 75.204L215.246 75.624C215.06 75.204 214.789 74.8773 214.434 74.644C214.089 74.4013 213.702 74.28 213.272 74.28C212.852 74.28 212.516 74.3873 212.264 74.602C212.012 74.8167 211.886 75.0873 211.886 75.414C211.886 75.666 211.952 75.8667 212.082 76.016C212.213 76.1653 212.362 76.2773 212.53 76.352C212.708 76.4267 212.862 76.4827 212.992 76.52L214.238 76.884C214.845 77.0613 215.316 77.3367 215.652 77.71C215.998 78.0833 216.17 78.522 216.17 79.026C216.17 79.4367 216.054 79.8053 215.82 80.132C215.596 80.4587 215.284 80.7153 214.882 80.902C214.481 81.0793 214.019 81.168 213.496 81.168ZM223.012 81.168C222.452 81.168 221.953 81.0607 221.514 80.846C221.076 80.6313 220.73 80.328 220.478 79.936C220.226 79.544 220.1 79.0867 220.1 78.564C220.1 78.116 220.184 77.7193 220.352 77.374C220.52 77.0287 220.726 76.73 220.968 76.478C221.22 76.2167 221.472 75.9973 221.724 75.82C221.986 75.6427 222.205 75.498 222.382 75.386L223.11 74.938C223.372 74.7793 223.628 74.602 223.88 74.406C224.142 74.2007 224.356 73.9673 224.524 73.706C224.702 73.4353 224.79 73.1367 224.79 72.81C224.79 72.418 224.66 72.0913 224.398 71.83C224.137 71.5687 223.81 71.438 223.418 71.438C223.017 71.438 222.686 71.5687 222.424 71.83C222.172 72.0913 222.046 72.4227 222.046 72.824C222.046 73.0853 222.107 73.342 222.228 73.594C222.359 73.846 222.518 74.0887 222.704 74.322C222.9 74.546 223.101 74.7653 223.306 74.98L229.046 81H227.548L222.424 75.708C222.2 75.4747 221.972 75.218 221.738 74.938C221.514 74.6487 221.323 74.336 221.164 74C221.006 73.6547 220.926 73.2767 220.926 72.866C220.926 72.3807 221.038 71.956 221.262 71.592C221.486 71.2187 221.785 70.9293 222.158 70.724C222.541 70.5093 222.961 70.402 223.418 70.402C223.866 70.402 224.277 70.5047 224.65 70.71C225.024 70.9153 225.322 71.2 225.546 71.564C225.77 71.928 225.882 72.3433 225.882 72.81C225.882 73.3047 225.766 73.7387 225.532 74.112C225.308 74.476 225.033 74.7887 224.706 75.05C224.38 75.3113 224.076 75.5307 223.796 75.708L223.096 76.142C222.844 76.3007 222.578 76.492 222.298 76.716C222.018 76.9307 221.78 77.1873 221.584 77.486C221.388 77.7753 221.29 78.1253 221.29 78.536C221.29 79.04 221.454 79.432 221.78 79.712C222.107 79.992 222.527 80.132 223.04 80.132C223.376 80.132 223.675 80.076 223.936 79.964C224.198 79.852 224.431 79.7073 224.636 79.53C224.842 79.3433 225.028 79.138 225.196 78.914C225.364 78.6807 225.523 78.452 225.672 78.228L227.282 75.834H228.556L226.68 78.69C226.531 78.9233 226.349 79.1847 226.134 79.474C225.92 79.754 225.668 80.0247 225.378 80.286C225.089 80.538 224.748 80.748 224.356 80.916C223.974 81.084 223.526 81.168 223.012 81.168ZM235.659 81.168C234.94 81.168 234.31 80.986 233.769 80.622C233.227 80.258 232.835 79.7633 232.593 79.138L233.475 78.718C233.689 79.1753 233.988 79.5393 234.371 79.81C234.763 80.0807 235.192 80.216 235.659 80.216C236.107 80.216 236.485 80.1087 236.793 79.894C237.101 79.67 237.255 79.3807 237.255 79.026C237.255 78.7647 237.18 78.5593 237.031 78.41C236.881 78.2513 236.709 78.13 236.513 78.046C236.317 77.962 236.144 77.9013 235.995 77.864L234.917 77.556C234.226 77.36 233.727 77.0847 233.419 76.73C233.111 76.3753 232.957 75.9647 232.957 75.498C232.957 75.0593 233.069 74.6767 233.293 74.35C233.517 74.0233 233.82 73.7713 234.203 73.594C234.585 73.4167 235.01 73.328 235.477 73.328C236.111 73.328 236.685 73.496 237.199 73.832C237.721 74.1587 238.09 74.616 238.305 75.204L237.409 75.624C237.222 75.204 236.951 74.8773 236.597 74.644C236.251 74.4013 235.864 74.28 235.435 74.28C235.015 74.28 234.679 74.3873 234.427 74.602C234.175 74.8167 234.049 75.0873 234.049 75.414C234.049 75.666 234.114 75.8667 234.245 76.016C234.375 76.1653 234.525 76.2773 234.693 76.352C234.87 76.4267 235.024 76.4827 235.155 76.52L236.401 76.884C237.007 77.0613 237.479 77.3367 237.815 77.71C238.16 78.0833 238.333 78.522 238.333 79.026C238.333 79.4367 238.216 79.8053 237.983 80.132C237.759 80.4587 237.446 80.7153 237.045 80.902C236.643 81.0793 236.181 81.168 235.659 81.168ZM243.608 81.168C242.87 81.168 242.222 80.9953 241.662 80.65C241.102 80.3047 240.663 79.838 240.346 79.25C240.028 78.6527 239.87 77.9807 239.87 77.234C239.87 76.4873 240.028 75.82 240.346 75.232C240.663 74.644 241.102 74.182 241.662 73.846C242.222 73.5007 242.87 73.328 243.608 73.328C244.074 73.328 244.513 73.412 244.924 73.58C245.334 73.748 245.698 73.9767 246.016 74.266C246.333 74.546 246.571 74.8727 246.73 75.246L245.778 75.736C245.591 75.3347 245.306 75.008 244.924 74.756C244.541 74.504 244.102 74.378 243.608 74.378C243.113 74.378 242.665 74.504 242.264 74.756C241.872 74.9987 241.559 75.3393 241.326 75.778C241.102 76.2073 240.99 76.6973 240.99 77.248C240.99 77.7893 241.102 78.2793 241.326 78.718C241.559 79.1473 241.872 79.488 242.264 79.74C242.665 79.992 243.113 80.118 243.608 80.118C244.102 80.118 244.536 79.992 244.91 79.74C245.292 79.488 245.582 79.152 245.778 78.732L246.73 79.25C246.571 79.614 246.333 79.9407 246.016 80.23C245.698 80.5193 245.334 80.748 244.924 80.916C244.513 81.084 244.074 81.168 243.608 81.168ZM250.605 81.168C250.129 81.168 249.705 81.0793 249.331 80.902C248.958 80.7153 248.664 80.4633 248.449 80.146C248.235 79.8287 248.127 79.4647 248.127 79.054C248.127 78.662 248.211 78.3073 248.379 77.99C248.547 77.6633 248.809 77.388 249.163 77.164C249.518 76.94 249.971 76.7813 250.521 76.688L253.461 76.198V77.15L250.773 77.598C250.232 77.6913 249.84 77.864 249.597 78.116C249.364 78.368 249.247 78.6667 249.247 79.012C249.247 79.348 249.378 79.6327 249.639 79.866C249.91 80.0993 250.255 80.216 250.675 80.216C251.189 80.216 251.637 80.1087 252.019 79.894C252.402 79.67 252.701 79.3713 252.915 78.998C253.13 78.6247 253.237 78.2093 253.237 77.752V75.848C253.237 75.4 253.074 75.036 252.747 74.756C252.421 74.476 251.996 74.336 251.473 74.336C251.016 74.336 250.615 74.4527 250.269 74.686C249.924 74.91 249.667 75.204 249.499 75.568L248.547 75.05C248.687 74.7327 248.907 74.4433 249.205 74.182C249.513 73.9207 249.863 73.7153 250.255 73.566C250.647 73.4073 251.053 73.328 251.473 73.328C252.024 73.328 252.509 73.4353 252.929 73.65C253.359 73.8647 253.69 74.1633 253.923 74.546C254.166 74.9193 254.287 75.3533 254.287 75.848V81H253.237V79.502L253.391 79.656C253.261 79.936 253.055 80.1927 252.775 80.426C252.505 80.65 252.183 80.832 251.809 80.972C251.445 81.1027 251.044 81.168 250.605 81.168ZM256.447 81V70.402H257.497V81H256.447ZM263.062 81.168C262.362 81.168 261.728 81 261.158 80.664C260.598 80.3187 260.155 79.8473 259.828 79.25C259.502 78.6527 259.338 77.976 259.338 77.22C259.338 76.464 259.497 75.7967 259.814 75.218C260.132 74.63 260.561 74.168 261.102 73.832C261.653 73.496 262.269 73.328 262.95 73.328C263.492 73.328 263.972 73.4307 264.392 73.636C264.822 73.832 265.186 74.1027 265.484 74.448C265.783 74.784 266.012 75.1667 266.17 75.596C266.329 76.016 266.408 76.45 266.408 76.898C266.408 76.9913 266.404 77.0987 266.394 77.22C266.385 77.332 266.371 77.4487 266.352 77.57H260.01V76.59H265.75L265.246 77.01C265.33 76.4967 265.27 76.0393 265.064 75.638C264.868 75.2273 264.584 74.9053 264.21 74.672C263.837 74.4293 263.417 74.308 262.95 74.308C262.484 74.308 262.05 74.4293 261.648 74.672C261.256 74.9147 260.948 75.2553 260.724 75.694C260.5 76.1233 260.412 76.6367 260.458 77.234C260.412 77.8313 260.505 78.354 260.738 78.802C260.981 79.2407 261.308 79.5813 261.718 79.824C262.138 80.0667 262.586 80.188 263.062 80.188C263.613 80.188 264.075 80.0573 264.448 79.796C264.822 79.5347 265.125 79.208 265.358 78.816L266.254 79.292C266.105 79.628 265.876 79.9407 265.568 80.23C265.26 80.51 264.892 80.7387 264.462 80.916C264.042 81.084 263.576 81.168 263.062 81.168ZM270.864 81.168C270.145 81.168 269.515 80.986 268.974 80.622C268.432 80.258 268.04 79.7633 267.798 79.138L268.68 78.718C268.894 79.1753 269.193 79.5393 269.576 79.81C269.968 80.0807 270.397 80.216 270.864 80.216C271.312 80.216 271.69 80.1087 271.998 79.894C272.306 79.67 272.46 79.3807 272.46 79.026C272.46 78.7647 272.385 78.5593 272.236 78.41C272.086 78.2513 271.914 78.13 271.718 78.046C271.522 77.962 271.349 77.9013 271.2 77.864L270.122 77.556C269.431 77.36 268.932 77.0847 268.624 76.73C268.316 76.3753 268.162 75.9647 268.162 75.498C268.162 75.0593 268.274 74.6767 268.498 74.35C268.722 74.0233 269.025 73.7713 269.408 73.594C269.79 73.4167 270.215 73.328 270.682 73.328C271.316 73.328 271.89 73.496 272.404 73.832C272.926 74.1587 273.295 74.616 273.51 75.204L272.614 75.624C272.427 75.204 272.156 74.8773 271.802 74.644C271.456 74.4013 271.069 74.28 270.64 74.28C270.22 74.28 269.884 74.3873 269.632 74.602C269.38 74.8167 269.254 75.0873 269.254 75.414C269.254 75.666 269.319 75.8667 269.45 76.016C269.58 76.1653 269.73 76.2773 269.898 76.352C270.075 76.4267 270.229 76.4827 270.36 76.52L271.606 76.884C272.212 77.0613 272.684 77.3367 273.02 77.71C273.365 78.0833 273.538 78.522 273.538 79.026C273.538 79.4367 273.421 79.8053 273.188 80.132C272.964 80.4587 272.651 80.7153 272.25 80.902C271.848 81.0793 271.386 81.168 270.864 81.168Z" fill="#7E7E7E"/>
</svg>
