<svg width="108" height="108" viewBox="0 0 108 108" fill="none" xmlns="http://www.w3.org/2000/svg">
<path d="M53.8285 86.4436L86.4438 53.8283L53.8285 21.213L21.2132 53.8283L53.8285 86.4436ZM104.121 50.2927L104.298 50.4792C106.015 52.3787 106.015 55.2779 104.298 57.1774L104.121 57.3638L57.364 104.121L57.1776 104.298C55.2781 106.015 52.379 106.014 50.4794 104.298L50.293 104.121L3.53553 57.3638C1.58291 55.4112 1.58291 52.2454 3.53553 50.2927L50.293 3.5353L50.4794 3.35853C52.4422 1.58508 55.4724 1.64368 57.364 3.5353L104.121 50.2927Z" fill="#2F2F2F"/>
<path d="M53.8285 86.4436L86.4438 53.8283L53.8285 21.213L21.2132 53.8283L53.8285 86.4436ZM104.121 50.2927L104.298 50.4792C106.015 52.3787 106.015 55.2779 104.298 57.1774L104.121 57.3638L57.364 104.121L57.1776 104.298C55.2781 106.015 52.379 106.014 50.4794 104.298L50.293 104.121L3.53553 57.3638C1.58291 55.4112 1.58291 52.2454 3.53553 50.2927L50.293 3.5353L50.4794 3.35853C52.4422 1.58508 55.4724 1.64368 57.364 3.5353L104.121 50.2927Z" fill="#2F2F2F"/>
<path d="M53.8285 86.4436L86.4438 53.8283L53.8285 21.213L21.2132 53.8283L53.8285 86.4436ZM104.121 50.2927L104.298 50.4792C106.015 52.3787 106.015 55.2779 104.298 57.1774L104.121 57.3638L57.364 104.121L57.1776 104.298C55.2781 106.015 52.379 106.014 50.4794 104.298L50.293 104.121L3.53553 57.3638C1.58291 55.4112 1.58291 52.2454 3.53553 50.2927L50.293 3.5353L50.4794 3.35853C52.4422 1.58508 55.4724 1.64368 57.364 3.5353L104.121 50.2927Z" fill="#2F2F2F"/>
<path d="M37.5206 82.0741L82.074 70.1361L70.1359 25.5827L25.5826 37.5208L37.5206 82.0741ZM99.151 75.913L99.2109 76.1629C99.7475 78.666 98.2979 81.1768 95.8618 81.9637L95.6155 82.0368L31.7437 99.1512L31.4938 99.211C28.9906 99.7478 26.4799 98.2981 25.693 95.8619L25.6199 95.6156L8.50552 31.7438C7.79081 29.0765 9.37372 26.3348 12.0411 25.6201L75.9129 8.50565L76.1628 8.44578C78.7493 7.8913 81.3442 9.45717 82.0366 12.0412L99.151 75.913Z" fill="#7E7E7E"/>
<path d="M12.0409 82.0365C9.37359 81.3218 7.79069 78.5801 8.5054 75.9128L25.6197 12.0412C26.3344 9.37392 29.0761 7.79101 31.7434 8.50572L95.615 25.62C98.2823 26.3348 99.8652 29.0764 99.1505 31.7438L82.0362 95.6153C81.3215 98.2826 78.5798 99.8655 75.9124 99.1508L12.0409 82.0365Z" fill="#D9D9D9"/>
<path d="M70.1358 82.0738L82.0738 37.5205L37.5205 25.5825L25.5825 70.1358L70.1358 82.0738ZM95.6154 25.6198L95.8617 25.6929C98.2978 26.4797 99.7474 28.9905 99.2108 31.4937L99.1509 31.7435L82.0365 95.6154L81.9634 95.8617C81.1767 98.298 78.6659 99.7474 76.1626 99.2108L75.9128 99.1509L12.0409 82.0365C9.3736 81.3218 7.79069 78.5801 8.5054 75.9128L25.6198 12.0409L25.6929 11.7946C26.506 9.27738 29.1595 7.81301 31.7435 8.50539L95.6154 25.6198Z" fill="#D5D5D5"/>
</svg>
