<svg width="273" height="104" viewBox="0 0 273 104" fill="none" xmlns="http://www.w3.org/2000/svg">
<path d="M51.7573 84.3725L84.3726 51.7572L51.7573 19.1419L19.142 51.7572L51.7573 84.3725ZM102.05 48.2216L102.227 48.4081C103.943 50.3076 103.943 53.2068 102.227 55.1063L102.05 55.2927L55.2928 102.05L55.1064 102.227C53.2069 103.943 50.3078 103.943 48.4082 102.227L48.2218 102.05L1.46433 55.2927C-0.427379 53.401 -0.486131 50.3708 1.28755 48.4081L1.46433 48.2216L48.2218 1.46421L48.4082 1.28743C50.371 -0.486019 53.4012 -0.427418 55.2928 1.46421L102.05 48.2216Z" fill="#2F2F2F"/>
<path d="M51.7573 84.3725L84.3726 51.7572L51.7573 19.1419L19.142 51.7572L51.7573 84.3725ZM102.05 48.2216L102.227 48.4081C103.943 50.3076 103.943 53.2068 102.227 55.1063L102.05 55.2927L55.2928 102.05L55.1064 102.227C53.2069 103.943 50.3078 103.943 48.4082 102.227L48.2218 102.05L1.46433 55.2927C-0.427379 53.401 -0.486131 50.3708 1.28755 48.4081L1.46433 48.2216L48.2218 1.46421L48.4082 1.28743C50.371 -0.486019 53.4012 -0.427418 55.2928 1.46421L102.05 48.2216Z" fill="#2F2F2F"/>
<path d="M51.7573 84.3725L84.3726 51.7572L51.7573 19.1419L19.142 51.7572L51.7573 84.3725ZM102.05 48.2216L102.227 48.4081C103.943 50.3076 103.943 53.2068 102.227 55.1063L102.05 55.2927L55.2928 102.05L55.1064 102.227C53.2069 103.943 50.3078 103.943 48.4082 102.227L48.2218 102.05L1.46433 55.2927C-0.427379 53.401 -0.486131 50.3708 1.28755 48.4081L1.46433 48.2216L48.2218 1.46421L48.4082 1.28743C50.371 -0.486019 53.4012 -0.427418 55.2928 1.46421L102.05 48.2216Z" fill="#2F2F2F"/>
<path d="M35.4494 80.003L80.0028 68.065L68.0647 23.5117L23.5114 35.4497L35.4494 80.003ZM97.0798 73.842L97.1397 74.0918C97.6763 76.595 96.2267 79.1058 93.7906 79.8926L93.5443 79.9657L29.6725 97.0801L29.4226 97.14C26.9194 97.6768 24.4087 96.2271 23.6218 93.7909L23.5487 93.5446L6.43432 29.6727C5.7419 27.0886 7.2061 24.435 9.72353 23.6221L9.96985 23.549L73.8417 6.43459L74.0916 6.37472C76.6781 5.82025 79.273 7.38611 79.9654 9.97013L97.0798 73.842Z" fill="#7E7E7E"/>
<path d="M9.96972 79.9654C7.30239 79.2507 5.71948 76.509 6.43419 73.8417L23.5485 9.97015C24.2632 7.30282 27.0049 5.71992 29.6722 6.43463L93.5438 23.549C96.2111 24.2637 97.794 27.0053 97.0793 29.6727L79.965 93.5442C79.2503 96.2115 76.5086 97.7944 73.8412 97.0797L9.96972 79.9654Z" fill="#D9D9D9"/>
<path d="M136.153 54.5049C133.881 54.5049 131.769 54.0889 129.817 53.2569C127.897 52.4249 126.233 51.2729 124.825 49.8009C123.449 48.2969 122.441 46.5529 121.801 44.5689L127.225 42.2169C128.089 44.2649 129.337 45.8809 130.969 47.0649C132.601 48.2169 134.441 48.7929 136.489 48.7929C137.641 48.7929 138.633 48.6169 139.465 48.2649C140.329 47.8809 140.985 47.3689 141.433 46.7289C141.913 46.0889 142.153 45.3209 142.153 44.4249C142.153 43.3689 141.833 42.5049 141.193 41.8329C140.585 41.1289 139.657 40.5849 138.409 40.2009L131.545 37.9929C128.761 37.1289 126.665 35.8329 125.257 34.1049C123.849 32.3769 123.145 30.3449 123.145 28.0089C123.145 25.9609 123.641 24.1529 124.633 22.5849C125.657 21.0169 127.065 19.8009 128.857 18.9369C130.681 18.0409 132.761 17.5929 135.097 17.5929C137.241 17.5929 139.209 17.9769 141.001 18.7449C142.793 19.4809 144.329 20.5209 145.609 21.8649C146.921 23.1769 147.897 24.7289 148.537 26.5209L143.161 28.9209C142.457 27.1289 141.401 25.7529 139.993 24.7929C138.585 23.8009 136.953 23.3049 135.097 23.3049C134.009 23.3049 133.049 23.4969 132.217 23.8809C131.385 24.2329 130.729 24.7449 130.249 25.4169C129.801 26.0569 129.577 26.8249 129.577 27.7209C129.577 28.7129 129.897 29.5929 130.537 30.3609C131.177 31.0969 132.153 31.6729 133.465 32.0889L140.041 34.1529C142.889 35.0809 145.017 36.3609 146.425 37.9929C147.865 39.6249 148.585 41.6409 148.585 44.0409C148.585 46.0889 148.057 47.8969 147.001 49.4649C145.945 51.0329 144.489 52.2649 142.633 53.1609C140.777 54.0569 138.617 54.5049 136.153 54.5049ZM166.511 54.5049C163.919 54.5049 161.583 53.9129 159.503 52.7289C157.455 51.5129 155.839 49.8809 154.655 47.8329C153.471 45.7529 152.879 43.4169 152.879 40.8249C152.879 38.2329 153.471 35.9129 154.655 33.8649C155.839 31.8169 157.455 30.2009 159.503 29.0169C161.583 27.8329 163.919 27.2409 166.511 27.2409C168.367 27.2409 170.095 27.5769 171.695 28.2489C173.295 28.8889 174.671 29.7849 175.823 30.9369C177.007 32.0569 177.855 33.4009 178.367 34.9689L172.847 37.3689C172.367 36.0569 171.551 35.0009 170.399 34.2009C169.279 33.4009 167.983 33.0009 166.511 33.0009C165.135 33.0009 163.903 33.3369 162.815 34.0089C161.759 34.6809 160.927 35.6089 160.319 36.7929C159.711 37.9769 159.407 39.3369 159.407 40.8729C159.407 42.4089 159.711 43.7689 160.319 44.9529C160.927 46.1369 161.759 47.0649 162.815 47.7369C163.903 48.4089 165.135 48.7449 166.511 48.7449C168.015 48.7449 169.327 48.3449 170.447 47.5449C171.567 46.7449 172.367 45.6729 172.847 44.3289L178.367 46.8249C177.855 48.2969 177.023 49.6249 175.871 50.8089C174.719 51.9609 173.343 52.8729 171.743 53.5449C170.143 54.1849 168.399 54.5049 166.511 54.5049ZM190.964 54.5049C189.14 54.5049 187.556 54.2009 186.212 53.5929C184.868 52.9849 183.828 52.1209 183.092 51.0009C182.356 49.8489 181.988 48.5209 181.988 47.0169C181.988 45.5769 182.308 44.2969 182.948 43.1769C183.588 42.0249 184.58 41.0649 185.924 40.2969C187.268 39.5289 188.964 38.9849 191.012 38.6649L199.556 37.2729V42.0729L192.212 43.3209C190.964 43.5449 190.036 43.9449 189.428 44.5209C188.82 45.0969 188.516 45.8489 188.516 46.7769C188.516 47.6729 188.852 48.3929 189.524 48.9369C190.228 49.4489 191.092 49.7049 192.116 49.7049C193.428 49.7049 194.58 49.4329 195.572 48.8889C196.596 48.3129 197.38 47.5289 197.924 46.5369C198.5 45.5449 198.788 44.4569 198.788 43.2729V36.5529C198.788 35.4329 198.34 34.5049 197.444 33.7689C196.58 33.0009 195.428 32.6169 193.988 32.6169C192.644 32.6169 191.444 32.9849 190.388 33.7209C189.364 34.4249 188.612 35.3689 188.132 36.5529L182.996 34.0569C183.508 32.6809 184.308 31.4969 185.396 30.5049C186.516 29.4809 187.828 28.6809 189.332 28.1049C190.836 27.5289 192.468 27.2409 194.228 27.2409C196.372 27.2409 198.26 27.6409 199.892 28.4409C201.524 29.2089 202.788 30.2969 203.684 31.7049C204.612 33.0809 205.076 34.6969 205.076 36.5529V53.9289H199.124V49.4649L200.468 49.3689C199.796 50.4889 198.996 51.4329 198.068 52.2009C197.14 52.9369 196.084 53.5129 194.9 53.9289C193.716 54.3129 192.404 54.5049 190.964 54.5049ZM210.888 53.9289V17.5929H217.176V53.9289H210.888ZM235.75 54.5049C233.19 54.5049 230.854 53.9129 228.742 52.7289C226.662 51.5449 224.998 49.9289 223.75 47.8809C222.534 45.8329 221.926 43.4969 221.926 40.8729C221.926 38.2489 222.534 35.9129 223.75 33.8649C224.998 31.8169 226.662 30.2009 228.742 29.0169C230.822 27.8329 233.158 27.2409 235.75 27.2409C238.31 27.2409 240.63 27.8329 242.71 29.0169C244.79 30.2009 246.438 31.8169 247.654 33.8649C248.902 35.8809 249.526 38.2169 249.526 40.8729C249.526 43.4969 248.902 45.8329 247.654 47.8809C246.406 49.9289 244.742 51.5449 242.662 52.7289C240.582 53.9129 238.278 54.5049 235.75 54.5049ZM235.75 48.7449C237.158 48.7449 238.39 48.4089 239.446 47.7369C240.534 47.0649 241.382 46.1369 241.99 44.9529C242.63 43.7369 242.95 42.3769 242.95 40.8729C242.95 39.3369 242.63 37.9929 241.99 36.8409C241.382 35.6569 240.534 34.7289 239.446 34.0569C238.39 33.3529 237.158 33.0009 235.75 33.0009C234.31 33.0009 233.046 33.3529 231.958 34.0569C230.87 34.7289 230.006 35.6569 229.366 36.8409C228.758 37.9929 228.454 39.3369 228.454 40.8729C228.454 42.3769 228.758 43.7369 229.366 44.9529C230.006 46.1369 230.87 47.0649 231.958 47.7369C233.046 48.4089 234.31 48.7449 235.75 48.7449Z" fill="#7E7E7E"/>
<path d="M136.153 54.5049C133.881 54.5049 131.769 54.0889 129.817 53.2569C127.897 52.4249 126.233 51.2729 124.825 49.8009C123.449 48.2969 122.441 46.5529 121.801 44.5689L127.225 42.2169C128.089 44.2649 129.337 45.8809 130.969 47.0649C132.601 48.2169 134.441 48.7929 136.489 48.7929C137.641 48.7929 138.633 48.6169 139.465 48.2649C140.329 47.8809 140.985 47.3689 141.433 46.7289C141.913 46.0889 142.153 45.3209 142.153 44.4249C142.153 43.3689 141.833 42.5049 141.193 41.8329C140.585 41.1289 139.657 40.5849 138.409 40.2009L131.545 37.9929C128.761 37.1289 126.665 35.8329 125.257 34.1049C123.849 32.3769 123.145 30.3449 123.145 28.0089C123.145 25.9609 123.641 24.1529 124.633 22.5849C125.657 21.0169 127.065 19.8009 128.857 18.9369C130.681 18.0409 132.761 17.5929 135.097 17.5929C137.241 17.5929 139.209 17.9769 141.001 18.7449C142.793 19.4809 144.329 20.5209 145.609 21.8649C146.921 23.1769 147.897 24.7289 148.537 26.5209L143.161 28.9209C142.457 27.1289 141.401 25.7529 139.993 24.7929C138.585 23.8009 136.953 23.3049 135.097 23.3049C134.009 23.3049 133.049 23.4969 132.217 23.8809C131.385 24.2329 130.729 24.7449 130.249 25.4169C129.801 26.0569 129.577 26.8249 129.577 27.7209C129.577 28.7129 129.897 29.5929 130.537 30.3609C131.177 31.0969 132.153 31.6729 133.465 32.0889L140.041 34.1529C142.889 35.0809 145.017 36.3609 146.425 37.9929C147.865 39.6249 148.585 41.6409 148.585 44.0409C148.585 46.0889 148.057 47.8969 147.001 49.4649C145.945 51.0329 144.489 52.2649 142.633 53.1609C140.777 54.0569 138.617 54.5049 136.153 54.5049ZM166.511 54.5049C163.919 54.5049 161.583 53.9129 159.503 52.7289C157.455 51.5129 155.839 49.8809 154.655 47.8329C153.471 45.7529 152.879 43.4169 152.879 40.8249C152.879 38.2329 153.471 35.9129 154.655 33.8649C155.839 31.8169 157.455 30.2009 159.503 29.0169C161.583 27.8329 163.919 27.2409 166.511 27.2409C168.367 27.2409 170.095 27.5769 171.695 28.2489C173.295 28.8889 174.671 29.7849 175.823 30.9369C177.007 32.0569 177.855 33.4009 178.367 34.9689L172.847 37.3689C172.367 36.0569 171.551 35.0009 170.399 34.2009C169.279 33.4009 167.983 33.0009 166.511 33.0009C165.135 33.0009 163.903 33.3369 162.815 34.0089C161.759 34.6809 160.927 35.6089 160.319 36.7929C159.711 37.9769 159.407 39.3369 159.407 40.8729C159.407 42.4089 159.711 43.7689 160.319 44.9529C160.927 46.1369 161.759 47.0649 162.815 47.7369C163.903 48.4089 165.135 48.7449 166.511 48.7449C168.015 48.7449 169.327 48.3449 170.447 47.5449C171.567 46.7449 172.367 45.6729 172.847 44.3289L178.367 46.8249C177.855 48.2969 177.023 49.6249 175.871 50.8089C174.719 51.9609 173.343 52.8729 171.743 53.5449C170.143 54.1849 168.399 54.5049 166.511 54.5049ZM190.964 54.5049C189.14 54.5049 187.556 54.2009 186.212 53.5929C184.868 52.9849 183.828 52.1209 183.092 51.0009C182.356 49.8489 181.988 48.5209 181.988 47.0169C181.988 45.5769 182.308 44.2969 182.948 43.1769C183.588 42.0249 184.58 41.0649 185.924 40.2969C187.268 39.5289 188.964 38.9849 191.012 38.6649L199.556 37.2729V42.0729L192.212 43.3209C190.964 43.5449 190.036 43.9449 189.428 44.5209C188.82 45.0969 188.516 45.8489 188.516 46.7769C188.516 47.6729 188.852 48.3929 189.524 48.9369C190.228 49.4489 191.092 49.7049 192.116 49.7049C193.428 49.7049 194.58 49.4329 195.572 48.8889C196.596 48.3129 197.38 47.5289 197.924 46.5369C198.5 45.5449 198.788 44.4569 198.788 43.2729V36.5529C198.788 35.4329 198.34 34.5049 197.444 33.7689C196.58 33.0009 195.428 32.6169 193.988 32.6169C192.644 32.6169 191.444 32.9849 190.388 33.7209C189.364 34.4249 188.612 35.3689 188.132 36.5529L182.996 34.0569C183.508 32.6809 184.308 31.4969 185.396 30.5049C186.516 29.4809 187.828 28.6809 189.332 28.1049C190.836 27.5289 192.468 27.2409 194.228 27.2409C196.372 27.2409 198.26 27.6409 199.892 28.4409C201.524 29.2089 202.788 30.2969 203.684 31.7049C204.612 33.0809 205.076 34.6969 205.076 36.5529V53.9289H199.124V49.4649L200.468 49.3689C199.796 50.4889 198.996 51.4329 198.068 52.2009C197.14 52.9369 196.084 53.5129 194.9 53.9289C193.716 54.3129 192.404 54.5049 190.964 54.5049ZM210.888 53.9289V17.5929H217.176V53.9289H210.888ZM235.75 54.5049C233.19 54.5049 230.854 53.9129 228.742 52.7289C226.662 51.5449 224.998 49.9289 223.75 47.8809C222.534 45.8329 221.926 43.4969 221.926 40.8729C221.926 38.2489 222.534 35.9129 223.75 33.8649C224.998 31.8169 226.662 30.2009 228.742 29.0169C230.822 27.8329 233.158 27.2409 235.75 27.2409C238.31 27.2409 240.63 27.8329 242.71 29.0169C244.79 30.2009 246.438 31.8169 247.654 33.8649C248.902 35.8809 249.526 38.2169 249.526 40.8729C249.526 43.4969 248.902 45.8329 247.654 47.8809C246.406 49.9289 244.742 51.5449 242.662 52.7289C240.582 53.9129 238.278 54.5049 235.75 54.5049ZM235.75 48.7449C237.158 48.7449 238.39 48.4089 239.446 47.7369C240.534 47.0649 241.382 46.1369 241.99 44.9529C242.63 43.7369 242.95 42.3769 242.95 40.8729C242.95 39.3369 242.63 37.9929 241.99 36.8409C241.382 35.6569 240.534 34.7289 239.446 34.0569C238.39 33.3529 237.158 33.0009 235.75 33.0009C234.31 33.0009 233.046 33.3529 231.958 34.0569C230.87 34.7289 230.006 35.6569 229.366 36.8409C228.758 37.9929 228.454 39.3369 228.454 40.8729C228.454 42.3769 228.758 43.7369 229.366 44.9529C230.006 46.1369 230.87 47.0649 231.958 47.7369C233.046 48.4089 234.31 48.7449 235.75 48.7449Z" fill="#D9D9D9"/>
<path d="M125.921 79.0969C125.183 79.0969 124.507 78.9663 123.891 78.7049C123.275 78.4343 122.738 78.0609 122.281 77.5849C121.833 77.0996 121.483 76.5303 121.231 75.8769C120.979 75.2236 120.853 74.5049 120.853 73.7209C120.853 72.9369 120.979 72.2183 121.231 71.5649C121.483 70.9116 121.833 70.3423 122.281 69.8569C122.738 69.3716 123.275 68.9983 123.891 68.7369C124.507 68.4663 125.183 68.3309 125.921 68.3309C126.63 68.3309 127.265 68.4569 127.825 68.7089C128.394 68.9609 128.87 69.2876 129.253 69.6889C129.645 70.0809 129.925 70.4963 130.093 70.9349L129.043 71.3969C128.782 70.7903 128.38 70.3049 127.839 69.9409C127.307 69.5676 126.667 69.3809 125.921 69.3809C125.155 69.3809 124.474 69.5629 123.877 69.9269C123.279 70.2909 122.813 70.7996 122.477 71.4529C122.141 72.0969 121.973 72.8529 121.973 73.7209C121.973 74.5796 122.141 75.3356 122.477 75.9889C122.813 76.6423 123.279 77.1509 123.877 77.5149C124.474 77.8696 125.155 78.0469 125.921 78.0469C126.667 78.0469 127.307 77.8649 127.839 77.5009C128.38 77.1369 128.782 76.6516 129.043 76.0449L130.093 76.5069C129.925 76.9363 129.645 77.3516 129.253 77.7529C128.87 78.1449 128.394 78.4669 127.825 78.7189C127.265 78.9709 126.63 79.0969 125.921 79.0969ZM135.322 79.0969C134.612 79.0969 133.968 78.9289 133.39 78.5929C132.811 78.2476 132.349 77.7809 132.004 77.1929C131.668 76.5956 131.5 75.9189 131.5 75.1629C131.5 74.4163 131.668 73.7489 132.004 73.1609C132.34 72.5729 132.792 72.1109 133.362 71.7749C133.94 71.4296 134.594 71.2569 135.322 71.2569C136.05 71.2569 136.698 71.4249 137.268 71.7609C137.846 72.0969 138.299 72.5589 138.626 73.1469C138.962 73.7349 139.13 74.4069 139.13 75.1629C139.13 75.9283 138.957 76.6096 138.612 77.2069C138.266 77.7949 137.804 78.2569 137.226 78.5929C136.656 78.9289 136.022 79.0969 135.322 79.0969ZM135.322 78.0469C135.826 78.0469 136.278 77.9209 136.68 77.6689C137.09 77.4169 137.412 77.0716 137.646 76.6329C137.888 76.1943 138.01 75.7043 138.01 75.1629C138.01 74.6216 137.888 74.1363 137.646 73.7069C137.412 73.2776 137.09 72.9369 136.68 72.6849C136.278 72.4329 135.826 72.3069 135.322 72.3069C134.818 72.3069 134.36 72.4329 133.95 72.6849C133.548 72.9369 133.226 73.2776 132.984 73.7069C132.741 74.1363 132.62 74.6216 132.62 75.1629C132.62 75.7043 132.741 76.1943 132.984 76.6329C133.226 77.0716 133.548 77.4169 133.95 77.6689C134.36 77.9209 134.818 78.0469 135.322 78.0469ZM140.981 78.9289V68.3309H142.031V78.9289H140.981ZM147.695 79.0969C146.985 79.0969 146.341 78.9289 145.763 78.5929C145.184 78.2476 144.722 77.7809 144.377 77.1929C144.041 76.5956 143.873 75.9189 143.873 75.1629C143.873 74.4163 144.041 73.7489 144.377 73.1609C144.713 72.5729 145.165 72.1109 145.735 71.7749C146.313 71.4296 146.967 71.2569 147.695 71.2569C148.423 71.2569 149.071 71.4249 149.641 71.7609C150.219 72.0969 150.672 72.5589 150.999 73.1469C151.335 73.7349 151.503 74.4069 151.503 75.1629C151.503 75.9283 151.33 76.6096 150.985 77.2069C150.639 77.7949 150.177 78.2569 149.599 78.5929C149.029 78.9289 148.395 79.0969 147.695 79.0969ZM147.695 78.0469C148.199 78.0469 148.651 77.9209 149.053 77.6689C149.463 77.4169 149.785 77.0716 150.019 76.6329C150.261 76.1943 150.383 75.7043 150.383 75.1629C150.383 74.6216 150.261 74.1363 150.019 73.7069C149.785 73.2776 149.463 72.9369 149.053 72.6849C148.651 72.4329 148.199 72.3069 147.695 72.3069C147.191 72.3069 146.733 72.4329 146.323 72.6849C145.921 72.9369 145.599 73.2776 145.357 73.7069C145.114 74.1363 144.993 74.6216 144.993 75.1629C144.993 75.7043 145.114 76.1943 145.357 76.6329C145.599 77.0716 145.921 77.4169 146.323 77.6689C146.733 77.9209 147.191 78.0469 147.695 78.0469ZM153.354 78.9289V71.4249H154.404V72.6569L154.264 72.4749C154.442 72.1203 154.708 71.8403 155.062 71.6349C155.426 71.4296 155.865 71.3269 156.378 71.3269H156.854V72.3769H156.196C155.655 72.3769 155.221 72.5449 154.894 72.8809C154.568 73.2169 154.404 73.6929 154.404 74.3089V78.9289H153.354ZM160.464 81.7289V71.4249H161.514V73.1049L161.346 72.8109C161.645 72.3349 162.041 71.9569 162.536 71.6769C163.04 71.3969 163.614 71.2569 164.258 71.2569C164.967 71.2569 165.597 71.4296 166.148 71.7749C166.708 72.1109 167.147 72.5729 167.464 73.1609C167.791 73.7489 167.954 74.4209 167.954 75.1769C167.954 75.9236 167.791 76.5956 167.464 77.1929C167.147 77.7809 166.708 78.2476 166.148 78.5929C165.597 78.9289 164.967 79.0969 164.258 79.0969C163.614 79.0969 163.031 78.9523 162.508 78.6629C161.995 78.3643 161.607 77.9443 161.346 77.4029L161.514 77.2489V81.7289H160.464ZM164.202 78.0469C164.706 78.0469 165.154 77.9209 165.546 77.6689C165.947 77.4169 166.26 77.0763 166.484 76.6469C166.717 76.2083 166.834 75.7183 166.834 75.1769C166.834 74.6263 166.717 74.1363 166.484 73.7069C166.26 73.2776 165.947 72.9369 165.546 72.6849C165.154 72.4329 164.706 72.3069 164.202 72.3069C163.698 72.3069 163.241 72.4329 162.83 72.6849C162.429 72.9369 162.107 73.2823 161.864 73.7209C161.631 74.1503 161.514 74.6356 161.514 75.1769C161.514 75.7183 161.631 76.2083 161.864 76.6469C162.107 77.0763 162.429 77.4169 162.83 77.6689C163.241 77.9209 163.698 78.0469 164.202 78.0469ZM171.972 79.0969C171.496 79.0969 171.071 79.0083 170.698 78.8309C170.324 78.6443 170.03 78.3923 169.816 78.0749C169.601 77.7576 169.494 77.3936 169.494 76.9829C169.494 76.5909 169.578 76.2363 169.746 75.9189C169.914 75.5923 170.175 75.3169 170.53 75.0929C170.884 74.8689 171.337 74.7103 171.888 74.6169L174.828 74.1269V75.0789L172.14 75.5269C171.598 75.6203 171.206 75.7929 170.964 76.0449C170.73 76.2969 170.614 76.5956 170.614 76.9409C170.614 77.2769 170.744 77.5616 171.006 77.7949C171.276 78.0283 171.622 78.1449 172.042 78.1449C172.555 78.1449 173.003 78.0376 173.386 77.8229C173.768 77.5989 174.067 77.3003 174.282 76.9269C174.496 76.5536 174.604 76.1383 174.604 75.6809V73.7769C174.604 73.3289 174.44 72.9649 174.114 72.6849C173.787 72.4049 173.362 72.2649 172.84 72.2649C172.382 72.2649 171.981 72.3816 171.636 72.6149C171.29 72.8389 171.034 73.1329 170.866 73.4969L169.914 72.9789C170.054 72.6616 170.273 72.3723 170.572 72.1109C170.88 71.8496 171.23 71.6443 171.622 71.4949C172.014 71.3363 172.42 71.2569 172.84 71.2569C173.39 71.2569 173.876 71.3643 174.296 71.5789C174.725 71.7936 175.056 72.0923 175.29 72.4749C175.532 72.8483 175.654 73.2823 175.654 73.7769V78.9289H174.604V77.4309L174.758 77.5849C174.627 77.8649 174.422 78.1216 174.142 78.3549C173.871 78.5789 173.549 78.7609 173.176 78.9009C172.812 79.0316 172.41 79.0969 171.972 79.0969ZM177.813 78.9289V68.3309H178.863V78.9289H177.813ZM184.429 79.0969C183.729 79.0969 183.094 78.9289 182.525 78.5929C181.965 78.2476 181.521 77.7763 181.195 77.1789C180.868 76.5816 180.705 75.9049 180.705 75.1489C180.705 74.3929 180.863 73.7256 181.181 73.1469C181.498 72.5589 181.927 72.0969 182.469 71.7609C183.019 71.4249 183.635 71.2569 184.317 71.2569C184.858 71.2569 185.339 71.3596 185.759 71.5649C186.188 71.7609 186.552 72.0316 186.851 72.3769C187.149 72.7129 187.378 73.0956 187.537 73.5249C187.695 73.9449 187.775 74.3789 187.775 74.8269C187.775 74.9203 187.77 75.0276 187.761 75.1489C187.751 75.2609 187.737 75.3776 187.719 75.4989H181.377V74.5189H187.117L186.613 74.9389C186.697 74.4256 186.636 73.9683 186.431 73.5669C186.235 73.1563 185.95 72.8343 185.577 72.6009C185.203 72.3583 184.783 72.2369 184.317 72.2369C183.85 72.2369 183.416 72.3583 183.015 72.6009C182.623 72.8436 182.315 73.1843 182.091 73.6229C181.867 74.0523 181.778 74.5656 181.825 75.1629C181.778 75.7603 181.871 76.2829 182.105 76.7309C182.347 77.1696 182.674 77.5103 183.085 77.7529C183.505 77.9956 183.953 78.1169 184.429 78.1169C184.979 78.1169 185.441 77.9863 185.815 77.7249C186.188 77.4636 186.491 77.1369 186.725 76.7449L187.621 77.2209C187.471 77.5569 187.243 77.8696 186.935 78.1589C186.627 78.4389 186.258 78.6676 185.829 78.8449C185.409 79.0129 184.942 79.0969 184.429 79.0969ZM192.496 79.0129C191.824 79.0129 191.306 78.8169 190.942 78.4249C190.578 78.0329 190.396 77.4729 190.396 76.7449V72.4749H189.01V71.4249H189.36C189.677 71.4249 189.929 71.3223 190.116 71.1169C190.303 70.9023 190.396 70.6363 190.396 70.3189V69.6889H191.446V71.4249H193.098V72.4749H191.446V76.7449C191.446 76.9969 191.483 77.2209 191.558 77.4169C191.633 77.6036 191.759 77.7529 191.936 77.8649C192.123 77.9769 192.37 78.0329 192.678 78.0329C192.753 78.0329 192.841 78.0283 192.944 78.0189C193.047 78.0096 193.135 78.0003 193.21 77.9909V78.9289C193.098 78.9569 192.972 78.9756 192.832 78.9849C192.692 79.0036 192.58 79.0129 192.496 79.0129ZM197.924 79.0129C197.252 79.0129 196.734 78.8169 196.37 78.4249C196.006 78.0329 195.824 77.4729 195.824 76.7449V72.4749H194.438V71.4249H194.788C195.105 71.4249 195.357 71.3223 195.544 71.1169C195.73 70.9023 195.824 70.6363 195.824 70.3189V69.6889H196.874V71.4249H198.526V72.4749H196.874V76.7449C196.874 76.9969 196.911 77.2209 196.986 77.4169C197.06 77.6036 197.186 77.7529 197.364 77.8649C197.55 77.9769 197.798 78.0329 198.106 78.0329C198.18 78.0329 198.269 78.0283 198.372 78.0189C198.474 78.0096 198.563 78.0003 198.638 77.9909V78.9289C198.526 78.9569 198.4 78.9756 198.26 78.9849C198.12 79.0036 198.008 79.0129 197.924 79.0129ZM203.624 79.0969C202.924 79.0969 202.289 78.9289 201.72 78.5929C201.16 78.2476 200.717 77.7763 200.39 77.1789C200.063 76.5816 199.9 75.9049 199.9 75.1489C199.9 74.3929 200.059 73.7256 200.376 73.1469C200.693 72.5589 201.123 72.0969 201.664 71.7609C202.215 71.4249 202.831 71.2569 203.512 71.2569C204.053 71.2569 204.534 71.3596 204.954 71.5649C205.383 71.7609 205.747 72.0316 206.046 72.3769C206.345 72.7129 206.573 73.0956 206.732 73.5249C206.891 73.9449 206.97 74.3789 206.97 74.8269C206.97 74.9203 206.965 75.0276 206.956 75.1489C206.947 75.2609 206.933 75.3776 206.914 75.4989H200.572V74.5189H206.312L205.808 74.9389C205.892 74.4256 205.831 73.9683 205.626 73.5669C205.43 73.1563 205.145 72.8343 204.772 72.6009C204.399 72.3583 203.979 72.2369 203.512 72.2369C203.045 72.2369 202.611 72.3583 202.21 72.6009C201.818 72.8436 201.51 73.1843 201.286 73.6229C201.062 74.0523 200.973 74.5656 201.02 75.1629C200.973 75.7603 201.067 76.2829 201.3 76.7309C201.543 77.1696 201.869 77.5103 202.28 77.7529C202.7 77.9956 203.148 78.1169 203.624 78.1169C204.175 78.1169 204.637 77.9863 205.01 77.7249C205.383 77.4636 205.687 77.1369 205.92 76.7449L206.816 77.2209C206.667 77.5569 206.438 77.8696 206.13 78.1589C205.822 78.4389 205.453 78.6676 205.024 78.8449C204.604 79.0129 204.137 79.0969 203.624 79.0969ZM211.425 79.0969C210.707 79.0969 210.077 78.9149 209.535 78.5509C208.994 78.1869 208.602 77.6923 208.359 77.0669L209.241 76.6469C209.456 77.1043 209.755 77.4683 210.137 77.7389C210.529 78.0096 210.959 78.1449 211.425 78.1449C211.873 78.1449 212.251 78.0376 212.559 77.8229C212.867 77.5989 213.021 77.3096 213.021 76.9549C213.021 76.6936 212.947 76.4883 212.797 76.3389C212.648 76.1803 212.475 76.0589 212.279 75.9749C212.083 75.8909 211.911 75.8303 211.761 75.7929L210.683 75.4849C209.993 75.2889 209.493 75.0136 209.185 74.6589C208.877 74.3043 208.723 73.8936 208.723 73.4269C208.723 72.9883 208.835 72.6056 209.059 72.2789C209.283 71.9523 209.587 71.7003 209.969 71.5229C210.352 71.3456 210.777 71.2569 211.243 71.2569C211.878 71.2569 212.452 71.4249 212.965 71.7609C213.488 72.0876 213.857 72.5449 214.071 73.1329L213.175 73.5529C212.989 73.1329 212.718 72.8063 212.363 72.5729C212.018 72.3303 211.631 72.2089 211.201 72.2089C210.781 72.2089 210.445 72.3163 210.193 72.5309C209.941 72.7456 209.815 73.0163 209.815 73.3429C209.815 73.5949 209.881 73.7956 210.011 73.9449C210.142 74.0943 210.291 74.2063 210.459 74.2809C210.637 74.3556 210.791 74.4116 210.921 74.4489L212.167 74.8129C212.774 74.9903 213.245 75.2656 213.581 75.6389C213.927 76.0123 214.099 76.4509 214.099 76.9549C214.099 77.3656 213.983 77.7343 213.749 78.0609C213.525 78.3876 213.213 78.6443 212.811 78.8309C212.41 79.0083 211.948 79.0969 211.425 79.0969ZM220.941 79.0969C220.381 79.0969 219.882 78.9896 219.443 78.7749C219.005 78.5603 218.659 78.2569 218.407 77.8649C218.155 77.4729 218.029 77.0156 218.029 76.4929C218.029 76.0449 218.113 75.6483 218.281 75.3029C218.449 74.9576 218.655 74.6589 218.897 74.4069C219.149 74.1456 219.401 73.9263 219.653 73.7489C219.915 73.5716 220.134 73.4269 220.311 73.3149L221.039 72.8669C221.301 72.7083 221.557 72.5309 221.809 72.3349C222.071 72.1296 222.285 71.8963 222.453 71.6349C222.631 71.3643 222.719 71.0656 222.719 70.7389C222.719 70.3469 222.589 70.0203 222.327 69.7589C222.066 69.4976 221.739 69.3669 221.347 69.3669C220.946 69.3669 220.615 69.4976 220.353 69.7589C220.101 70.0203 219.975 70.3516 219.975 70.7529C219.975 71.0143 220.036 71.2709 220.157 71.5229C220.288 71.7749 220.447 72.0176 220.633 72.2509C220.829 72.4749 221.03 72.6943 221.235 72.9089L226.975 78.9289H225.477L220.353 73.6369C220.129 73.4036 219.901 73.1469 219.667 72.8669C219.443 72.5776 219.252 72.2649 219.093 71.9289C218.935 71.5836 218.855 71.2056 218.855 70.7949C218.855 70.3096 218.967 69.8849 219.191 69.5209C219.415 69.1476 219.714 68.8583 220.087 68.6529C220.47 68.4383 220.89 68.3309 221.347 68.3309C221.795 68.3309 222.206 68.4336 222.579 68.6389C222.953 68.8443 223.251 69.1289 223.475 69.4929C223.699 69.8569 223.811 70.2723 223.811 70.7389C223.811 71.2336 223.695 71.6676 223.461 72.0409C223.237 72.4049 222.962 72.7176 222.635 72.9789C222.309 73.2403 222.005 73.4596 221.725 73.6369L221.025 74.0709C220.773 74.2296 220.507 74.4209 220.227 74.6449C219.947 74.8596 219.709 75.1163 219.513 75.4149C219.317 75.7043 219.219 76.0543 219.219 76.4649C219.219 76.9689 219.383 77.3609 219.709 77.6409C220.036 77.9209 220.456 78.0609 220.969 78.0609C221.305 78.0609 221.604 78.0049 221.865 77.8929C222.127 77.7809 222.36 77.6363 222.565 77.4589C222.771 77.2723 222.957 77.0669 223.125 76.8429C223.293 76.6096 223.452 76.3809 223.601 76.1569L225.211 73.7629H226.485L224.609 76.6189C224.46 76.8523 224.278 77.1136 224.063 77.4029C223.849 77.6829 223.597 77.9536 223.307 78.2149C223.018 78.4669 222.677 78.6769 222.285 78.8449C221.903 79.0129 221.455 79.0969 220.941 79.0969ZM233.587 79.0969C232.869 79.0969 232.239 78.9149 231.697 78.5509C231.156 78.1869 230.764 77.6923 230.521 77.0669L231.403 76.6469C231.618 77.1043 231.917 77.4683 232.299 77.7389C232.691 78.0096 233.121 78.1449 233.587 78.1449C234.035 78.1449 234.413 78.0376 234.721 77.8229C235.029 77.5989 235.183 77.3096 235.183 76.9549C235.183 76.6936 235.109 76.4883 234.959 76.3389C234.81 76.1803 234.637 76.0589 234.441 75.9749C234.245 75.8909 234.073 75.8303 233.923 75.7929L232.845 75.4849C232.155 75.2889 231.655 75.0136 231.347 74.6589C231.039 74.3043 230.885 73.8936 230.885 73.4269C230.885 72.9883 230.997 72.6056 231.221 72.2789C231.445 71.9523 231.749 71.7003 232.131 71.5229C232.514 71.3456 232.939 71.2569 233.405 71.2569C234.04 71.2569 234.614 71.4249 235.127 71.7609C235.65 72.0876 236.019 72.5449 236.233 73.1329L235.337 73.5529C235.151 73.1329 234.88 72.8063 234.525 72.5729C234.18 72.3303 233.793 72.2089 233.363 72.2089C232.943 72.2089 232.607 72.3163 232.355 72.5309C232.103 72.7456 231.977 73.0163 231.977 73.3429C231.977 73.5949 232.043 73.7956 232.173 73.9449C232.304 74.0943 232.453 74.2063 232.621 74.2809C232.799 74.3556 232.953 74.4116 233.083 74.4489L234.329 74.8129C234.936 74.9903 235.407 75.2656 235.743 75.6389C236.089 76.0123 236.261 76.4509 236.261 76.9549C236.261 77.3656 236.145 77.7343 235.911 78.0609C235.687 78.3876 235.375 78.6443 234.973 78.8309C234.572 79.0083 234.11 79.0969 233.587 79.0969ZM241.536 79.0969C240.799 79.0969 240.15 78.9243 239.59 78.5789C239.03 78.2336 238.592 77.7669 238.274 77.1789C237.957 76.5816 237.798 75.9096 237.798 75.1629C237.798 74.4163 237.957 73.7489 238.274 73.1609C238.592 72.5729 239.03 72.1109 239.59 71.7749C240.15 71.4296 240.799 71.2569 241.536 71.2569C242.003 71.2569 242.442 71.3409 242.852 71.5089C243.263 71.6769 243.627 71.9056 243.944 72.1949C244.262 72.4749 244.5 72.8016 244.658 73.1749L243.706 73.6649C243.52 73.2636 243.235 72.9369 242.852 72.6849C242.47 72.4329 242.031 72.3069 241.536 72.3069C241.042 72.3069 240.594 72.4329 240.192 72.6849C239.8 72.9276 239.488 73.2683 239.254 73.7069C239.03 74.1363 238.918 74.6263 238.918 75.1769C238.918 75.7183 239.03 76.2083 239.254 76.6469C239.488 77.0763 239.8 77.4169 240.192 77.6689C240.594 77.9209 241.042 78.0469 241.536 78.0469C242.031 78.0469 242.465 77.9209 242.838 77.6689C243.221 77.4169 243.51 77.0809 243.706 76.6609L244.658 77.1789C244.5 77.5429 244.262 77.8696 243.944 78.1589C243.627 78.4483 243.263 78.6769 242.852 78.8449C242.442 79.0129 242.003 79.0969 241.536 79.0969ZM248.534 79.0969C248.058 79.0969 247.634 79.0083 247.26 78.8309C246.887 78.6443 246.593 78.3923 246.378 78.0749C246.164 77.7576 246.056 77.3936 246.056 76.9829C246.056 76.5909 246.14 76.2363 246.308 75.9189C246.476 75.5923 246.738 75.3169 247.092 75.0929C247.447 74.8689 247.9 74.7103 248.45 74.6169L251.39 74.1269V75.0789L248.702 75.5269C248.161 75.6203 247.769 75.7929 247.526 76.0449C247.293 76.2969 247.176 76.5956 247.176 76.9409C247.176 77.2769 247.307 77.5616 247.568 77.7949C247.839 78.0283 248.184 78.1449 248.604 78.1449C249.118 78.1449 249.566 78.0376 249.948 77.8229C250.331 77.5989 250.63 77.3003 250.844 76.9269C251.059 76.5536 251.166 76.1383 251.166 75.6809V73.7769C251.166 73.3289 251.003 72.9649 250.676 72.6849C250.35 72.4049 249.925 72.2649 249.402 72.2649C248.945 72.2649 248.544 72.3816 248.198 72.6149C247.853 72.8389 247.596 73.1329 247.428 73.4969L246.476 72.9789C246.616 72.6616 246.836 72.3723 247.134 72.1109C247.442 71.8496 247.792 71.6443 248.184 71.4949C248.576 71.3363 248.982 71.2569 249.402 71.2569C249.953 71.2569 250.438 71.3643 250.858 71.5789C251.288 71.7936 251.619 72.0923 251.852 72.4749C252.095 72.8483 252.216 73.2823 252.216 73.7769V78.9289H251.166V77.4309L251.32 77.5849C251.19 77.8649 250.984 78.1216 250.704 78.3549C250.434 78.5789 250.112 78.7609 249.738 78.9009C249.374 79.0316 248.973 79.0969 248.534 79.0969ZM254.376 78.9289V68.3309H255.426V78.9289H254.376ZM260.991 79.0969C260.291 79.0969 259.657 78.9289 259.087 78.5929C258.527 78.2476 258.084 77.7763 257.757 77.1789C257.431 76.5816 257.267 75.9049 257.267 75.1489C257.267 74.3929 257.426 73.7256 257.743 73.1469C258.061 72.5589 258.49 72.0969 259.031 71.7609C259.582 71.4249 260.198 71.2569 260.879 71.2569C261.421 71.2569 261.901 71.3596 262.321 71.5649C262.751 71.7609 263.115 72.0316 263.413 72.3769C263.712 72.7129 263.941 73.0956 264.099 73.5249C264.258 73.9449 264.337 74.3789 264.337 74.8269C264.337 74.9203 264.333 75.0276 264.323 75.1489C264.314 75.2609 264.3 75.3776 264.281 75.4989H257.939V74.5189H263.679L263.175 74.9389C263.259 74.4256 263.199 73.9683 262.993 73.5669C262.797 73.1563 262.513 72.8343 262.139 72.6009C261.766 72.3583 261.346 72.2369 260.879 72.2369C260.413 72.2369 259.979 72.3583 259.577 72.6009C259.185 72.8436 258.877 73.1843 258.653 73.6229C258.429 74.0523 258.341 74.5656 258.387 75.1629C258.341 75.7603 258.434 76.2829 258.667 76.7309C258.91 77.1696 259.237 77.5103 259.647 77.7529C260.067 77.9956 260.515 78.1169 260.991 78.1169C261.542 78.1169 262.004 77.9863 262.377 77.7249C262.751 77.4636 263.054 77.1369 263.287 76.7449L264.183 77.2209C264.034 77.5569 263.805 77.8696 263.497 78.1589C263.189 78.4389 262.821 78.6676 262.391 78.8449C261.971 79.0129 261.505 79.0969 260.991 79.0969ZM268.792 79.0969C268.074 79.0969 267.444 78.9149 266.902 78.5509C266.361 78.1869 265.969 77.6923 265.726 77.0669L266.608 76.6469C266.823 77.1043 267.122 77.4683 267.504 77.7389C267.896 78.0096 268.326 78.1449 268.792 78.1449C269.24 78.1449 269.618 78.0376 269.926 77.8229C270.234 77.5989 270.388 77.3096 270.388 76.9549C270.388 76.6936 270.314 76.4883 270.164 76.3389C270.015 76.1803 269.842 76.0589 269.646 75.9749C269.45 75.8909 269.278 75.8303 269.128 75.7929L268.05 75.4849C267.36 75.2889 266.86 75.0136 266.552 74.6589C266.244 74.3043 266.09 73.8936 266.09 73.4269C266.09 72.9883 266.202 72.6056 266.426 72.2789C266.65 71.9523 266.954 71.7003 267.336 71.5229C267.719 71.3456 268.144 71.2569 268.61 71.2569C269.245 71.2569 269.819 71.4249 270.332 71.7609C270.855 72.0876 271.224 72.5449 271.438 73.1329L270.542 73.5529C270.356 73.1329 270.085 72.8063 269.73 72.5729C269.385 72.3303 268.998 72.2089 268.568 72.2089C268.148 72.2089 267.812 72.3163 267.56 72.5309C267.308 72.7456 267.182 73.0163 267.182 73.3429C267.182 73.5949 267.248 73.7956 267.378 73.9449C267.509 74.0943 267.658 74.2063 267.826 74.2809C268.004 74.3556 268.158 74.4116 268.288 74.4489L269.534 74.8129C270.141 74.9903 270.612 75.2656 270.948 75.6389C271.294 76.0123 271.466 76.4509 271.466 76.9549C271.466 77.3656 271.35 77.7343 271.116 78.0609C270.892 78.3876 270.58 78.6443 270.178 78.8309C269.777 79.0083 269.315 79.0969 268.792 79.0969Z" fill="#7E7E7E"/>
</svg>
